<svg width="554" height="425" viewBox="0 0 554 425" fill="none" xmlns="http://www.w3.org/2000/svg">
    <path d="M276.207 99.2067C278.775 96.5611 281.993 94.6611 285.527 93.7037C289.062 92.7462 292.784 92.7662 296.308 93.7615C299.832 94.7567 303.03 96.6911 305.571 99.3641C308.111 102.037 309.901 105.351 310.755 108.963C313.822 122.429 312.138 142.122 295.174 168.746C258.622 226.063 235.49 284.855 164 208.907L176.816 195.892C176.816 195.892 214.165 228.547 230.473 198.646C243.644 174.543 251.39 124.301 276.207 99.2067Z"
          fill="#F4A28C"/>
    <path opacity="0.2"
          d="M276.207 99.2067C278.775 96.5611 281.993 94.6611 285.527 93.7037C289.062 92.7462 292.784 92.7662 296.308 93.7615C299.832 94.7567 303.03 96.6911 305.571 99.3641C308.111 102.037 309.901 105.351 310.755 108.963C313.822 122.429 312.138 142.122 295.174 168.746C258.622 226.063 235.49 284.855 164 208.907L176.816 195.892C176.816 195.892 214.165 228.547 230.473 198.646C243.644 174.543 251.39 124.301 276.207 99.2067Z"
          fill="white"/>
    <path opacity="0.45"
          d="M317.5 425C448.115 425 554 407.763 554 386.5C554 365.237 448.115 348 317.5 348C186.885 348 81 365.237 81 386.5C81 407.763 186.885 425 317.5 425Z"
          fill="#E6E6E6"/>
    <path opacity="0.58"
          d="M473.188 362.16C473.188 362.16 455.024 356.189 451 335.578C451 335.578 479.082 328.483 480 364L473.188 362.16Z"
          fill="#68E1FD"/>
    <path opacity="0.73"
          d="M476.542 357C476.542 357 463.079 335.295 474.78 315C474.78 315 497.405 329.615 487.485 357H476.542Z"
          fill="#68E1FD"/>
    <path d="M480 357C480 357 487.118 336.046 508.595 332C508.595 332 512.706 345.573 494.733 357H480Z" fill="#68E1FD"/>
    <path d="M464 357L467.991 383H492.486L496 357H464Z" fill="#24285B"/>
    <path d="M306.043 39.5847C306.043 39.5847 306.715 50.6419 309.389 57.6063C309.648 58.2821 310.026 58.8946 310.5 59.4085C310.974 59.9224 311.536 60.3275 312.152 60.6006C312.769 60.8737 313.428 61.0092 314.092 60.9995C314.756 60.9898 315.412 60.8349 316.022 60.5439C319.189 58.9926 323.043 55.9065 323.342 49.9323L324.97 39.8653C325.123 37.7988 324.685 35.7316 323.717 33.955C322.749 32.1785 321.302 30.7823 319.577 29.9633C313.378 26.5306 305.341 32.8679 306.043 39.5847Z"
          fill="#F4A28C"/>
    <path d="M325.94 42L348 80.7834L327.647 87L322 59.449L325.94 42Z" fill="#F4A28C"/>
    <path d="M304.29 48L303.098 54.3252C303.03 54.6832 302.996 55.0823 303 55.485C303.005 55.8877 303.046 56.281 303.122 56.628C303.198 56.9751 303.304 57.2646 303.432 57.4694C303.56 57.6743 303.706 57.7879 303.854 57.7996L306 58L304.29 48Z"
          fill="#F4A28C"/>
    <path opacity="0.31"
          d="M322 58.9441C322 58.9441 323.663 55.8035 323.809 48C323.809 48 327.084 58 322.773 68L322 58.9441Z"
          fill="#CE8172"/>
    <path d="M405.236 293C405.236 293 537.454 114.097 405.236 77.4545C357.024 64.0794 283.647 82.8405 312.539 255.191L405.236 293Z"
          fill="#C9C9C9"/>
    <path d="M364 305.442L381.2 386H393L379.329 300L364 305.442Z" fill="#E6E6E6"/>
    <path d="M280 301.488L264.579 383H254L266.257 296L280 301.488Z" fill="#E6E6E6"/>
    <path d="M406 293.708C401.479 305.84 381.827 325.46 372.357 324.992C339.746 323.397 271.178 308.111 271.178 308.111C266.622 308.111 262.253 306.348 259.031 303.212C255.81 300.075 254 295.821 254 291.385L258.824 286.359C258.824 277.139 273.065 277 282.588 277H388.822C391.077 276.998 393.311 277.428 395.395 278.267C397.479 279.105 399.372 280.336 400.968 281.887C402.563 283.439 403.829 285.282 404.692 287.31C405.556 289.338 406 291.512 406 293.708Z"
          fill="#C9C9C9"/>
    <path d="M268.018 128.501C267.742 119.215 270.599 110.105 276.128 102.637C281.656 95.17 289.537 89.7788 298.501 87.3309C319.513 81.5523 364.003 77.5738 393.55 85.2427C447.565 99.2662 415.948 235.757 370.935 277L269.711 261.518C269.711 261.518 289.246 207.512 276.067 173.308C270.341 158.385 268.396 142.111 268.018 128.501Z"
          fill="#F6635A"/>
    <path d="M304.035 40.8607L303.635 38.146C302.784 33.5096 300.572 29.1796 297.241 25.6301C296.678 24.9743 296.291 24.204 296.112 23.3827C295.934 22.5613 295.968 21.7123 296.213 20.9058C297.641 14.8065 301.77 22.792 306.737 17.3802C311.704 11.9684 311.343 9.2713 317.033 10.1703C322.723 11.0694 314.045 17.9619 321.334 17.2215C328.622 16.4812 331.439 10.1703 333.399 15.7408C333.834 16.8702 334.015 18.0698 333.932 19.2664C333.855 20.2006 334.088 21.1342 334.597 21.9434C335.107 22.7526 335.871 23.3989 336.786 23.7968C338.689 24.6429 339.812 26.0179 338.29 28.2214C334.883 33.1044 330.678 33.9681 329.345 48L323.218 46.9071C323.218 46.9071 323.484 36.3303 318.251 34.2678C313.017 32.2053 303.635 36.2774 304.035 40.8607Z"
          fill="#FFD200"/>
    <path opacity="0.08"
          d="M379.523 100C379.523 100 353.834 110.595 357.659 146.633C360.243 171.319 391.208 251.629 313.576 228.637L312 258.801L350.736 274.171L369.166 277L375.646 270.171L409 221.844L398.82 159.679L379.523 100Z"
          fill="black"/>
    <path d="M225 177L322.251 184.755L324.614 255.684L354 267.117L351.583 277L235.553 264.106L225 177Z" fill="#FFD200"/>
    <path d="M273.5 225C278.747 225 283 221.642 283 217.5C283 213.358 278.747 210 273.5 210C268.253 210 264 213.358 264 217.5C264 221.642 268.253 225 273.5 225Z"
          fill="white"/>
    <path d="M294.785 367C294.785 367 291.724 373.952 284.024 374.484C276.324 375.017 274.313 381.155 281.234 382.767C288.155 384.379 306 377.102 306 377.102L305.493 368.035L294.785 367Z"
          fill="#68E1FD"/>
    <path d="M371 274.877L329.092 268.457C323.042 267.528 316.862 268.019 311.027 269.89C305.191 271.761 299.855 274.965 295.427 279.254C290.998 283.544 287.595 288.806 285.477 294.638C283.36 300.47 282.584 306.717 283.21 312.901L288.581 367H309.293L307.503 316.356C307.402 313.525 307.92 310.707 309.019 308.103C310.118 305.5 311.77 303.176 313.858 301.298C315.946 299.421 318.418 298.036 321.095 297.244C323.772 296.452 326.589 296.272 329.343 296.716C347.137 299.717 369.246 298.389 371 274.877Z"
          fill="#F6635A"/>
    <path d="M252.785 367C252.785 367 249.724 373.952 242.024 374.484C234.324 375.017 232.313 381.155 239.234 382.767C246.155 384.379 264 377.102 264 377.102L263.493 368.035L252.785 367Z"
          fill="#68E1FD"/>
    <path d="M325 274.877L284.045 268.457C278.132 267.528 272.093 268.019 266.39 269.89C260.687 271.761 255.472 274.965 251.144 279.254C246.816 283.544 243.49 288.806 241.421 294.638C239.352 300.47 238.594 306.717 239.206 312.901L244.559 367H264.643L262.894 316.356C262.795 313.525 263.301 310.707 264.375 308.103C265.449 305.5 267.064 303.176 269.104 301.298C271.145 299.421 273.56 298.036 276.177 297.244C278.793 296.452 281.546 296.272 284.237 296.716C301.679 299.717 323.286 298.389 325 274.877Z"
          fill="#F6635A"/>
    <path d="M374.257 110.211C374.877 106.58 376.462 103.18 378.851 100.362C381.239 97.5443 384.343 95.4108 387.841 94.1828C391.339 92.9548 395.104 92.6768 398.747 93.3777C402.39 94.0786 405.778 95.7328 408.56 98.1691C418.825 107.321 428.713 124.268 429.882 155.666C432.399 223.313 446.889 284.378 344 264.023L347.182 246.059C347.182 246.059 396.928 250.982 393.332 217.301C390.42 190.15 368.073 144.873 374.257 110.211Z"
          fill="#F4A28C"/>
    <path opacity="0.2"
          d="M375.289 110.211C375.929 106.58 377.569 103.18 380.039 100.362C382.508 97.5443 385.718 95.4108 389.335 94.1828C392.953 92.9548 396.847 92.6768 400.614 93.3777C404.38 94.0786 407.884 95.7328 410.761 98.1691C421.376 107.321 431.601 124.268 432.81 155.666C435.413 223.313 450.397 284.378 344 264.023L347.291 246.059C347.291 246.059 398.732 250.982 395.014 217.301C392.002 190.15 368.894 144.873 375.289 110.211Z"
          fill="white"/>
    <path d="M348 250.252C348 250.252 328.257 242.25 325 256.414L345.465 264L348 250.252Z" fill="#F4A28C"/>
    <path d="M319.045 45.6785C319.045 45.6785 318.404 42.1409 321.972 42.0027C325.539 41.8646 326.508 46.9774 321.825 48L319.045 45.6785Z"
          fill="#F4A28C"/>
    <path d="M315.274 84C315.274 84 312.181 75.6114 326.775 72.9278C341.369 70.2442 353.816 68.4426 357 81.185"
          fill="#F4A28C"/>
    <path opacity="0.2"
          d="M319.248 84C319.248 84 316.449 75.6114 329.653 72.9278C342.857 70.2442 354.119 68.4426 357 81.185"
          fill="white"/>
    <path opacity="0.08"
          d="M324.134 229C324.134 229 274.886 229 235 246.057L237.136 264.039L351.597 277L354 267.048L325.006 255.574L324.134 229Z"
          fill="black"/>
    <path d="M139.014 213H129V207.029H139.014C141.551 207.029 143.983 205.92 145.776 203.945C147.57 201.971 148.577 199.292 148.577 196.5C148.577 193.708 147.57 191.029 145.776 189.055C143.983 187.08 141.551 185.971 139.014 185.971H129V180H139.014C142.989 180 146.801 181.738 149.611 184.833C152.421 187.927 154 192.124 154 196.5C154 200.876 152.421 205.073 149.611 208.167C146.801 211.262 142.989 213 139.014 213Z"
          fill="#FFD200"/>
    <path d="M174 197.454C174 197.454 170.021 184.227 154.521 187.529C139.02 190.831 142.74 215.738 163.545 208.779L174 197.454Z"
          fill="#F4A28C"/>
    <path d="M135 174H103V219H135V174Z" fill="#24285B"/>
    <path opacity="0.45"
          d="M131.661 173.984C131.661 173.984 140.336 163.37 129.721 159.425C119.105 155.48 111.005 169.155 106.514 155.002C102.024 140.85 111.508 129.794 91.7498 129.369C71.992 128.945 60.7659 152.809 56.2755 129.369C51.7851 105.929 36.5177 100.18 17.658 104.16C-1.20178 108.141 -12.8769 178.141 24.8426 176.691C62.5621 175.24 71.5429 150.403 78.2785 167.279C85.0142 184.156 103.91 173.931 103.91 173.931L131.661 173.984Z"
          fill="#E6E6E6"/>
    <path d="M173.5 93C200.286 93 222 72.1812 222 46.5C222 20.8188 200.286 0 173.5 0C146.714 0 125 20.8188 125 46.5C125 72.1812 146.714 93 173.5 93Z"
          fill="#E6E6E6"/>
    <path d="M174 78C191.673 78 206 64.1208 206 47C206 29.8792 191.673 16 174 16C156.327 16 142 29.8792 142 47C142 64.1208 156.327 78 174 78Z"
          fill="#F2F2F2"/>
    <path d="M184.777 58C184.184 58.0029 183.612 57.8353 183.179 57.5319L171.81 50.3033C171.556 50.1406 171.352 49.9385 171.212 49.7111C171.072 49.4837 171 49.2363 171 48.9859V27.7335C171 27.2737 171.244 26.8328 171.678 26.5077C172.112 26.1826 172.701 26 173.315 26C173.93 26 174.519 26.1826 174.953 26.5077C175.387 26.8328 175.631 27.2737 175.631 27.7335V48.2578L186.189 54.949C186.549 55.1794 186.806 55.4867 186.925 55.8296C187.045 56.1725 187.021 56.5346 186.857 56.867C186.693 57.1995 186.396 57.4863 186.008 57.6888C185.62 57.8914 185.158 58 184.684 58H184.777Z"
          fill="#A5A5A5"/>
</svg>
