<svg width="727" height="462" viewBox="0 0 727 462" fill="none" xmlns="http://www.w3.org/2000/svg">
    <path d="M579.363 202C579.363 202 547.957 204.685 547.957 230.428C547.957 248.754 550.744 292.759 542.936 321.592C541.996 325.082 540.285 328.336 537.919 331.131C535.553 333.925 532.588 336.194 529.228 337.783C525.868 339.371 522.191 340.242 518.449 340.334C514.708 340.427 510.989 339.74 507.549 338.32L433.988 308.23C433.988 308.23 411.229 298.236 403.024 303.968C394.818 309.701 414.215 315.753 414.215 315.753C414.215 315.753 407.58 338.384 426.822 336.274C446.064 334.165 511.596 407.173 564.456 374.632C617.316 342.092 619.306 239.847 579.363 202Z"
          fill="#F4A28C"/>
    <path opacity="0.08"
          d="M579.363 202C579.363 202 547.957 204.685 547.957 230.428C547.957 248.754 550.744 292.759 542.936 321.592C541.996 325.082 540.285 328.336 537.919 331.131C535.553 333.925 532.588 336.194 529.228 337.783C525.868 339.371 522.191 340.242 518.449 340.334C514.708 340.427 510.989 339.74 507.549 338.32L433.988 308.23C433.988 308.23 411.229 298.236 403.024 303.968C394.818 309.701 414.215 315.753 414.215 315.753C414.215 315.753 407.58 338.384 426.822 336.274C446.064 334.165 511.596 407.173 564.456 374.632C617.316 342.092 619.306 239.847 579.363 202Z"
          fill="black"/>
    <path d="M178 186C178 186 225.498 202.925 236.48 268.378C247.462 333.831 236.369 363.141 302.925 361.642L351 358.711V379.758L201.605 380L178 186Z"
          fill="#F4A28C"/>
    <path opacity="0.08"
          d="M178 186C178 186 225.498 203.187 236.48 269.652C247.462 336.117 236.369 365.88 302.925 364.359L351 361.382V382.754L201.605 383L178 186Z"
          fill="#F6635A"/>
    <path d="M141.809 102.502C141.809 102.502 147.978 116.627 148.961 127.268C149.06 128.296 148.97 129.335 148.696 130.325C148.423 131.315 147.971 132.237 147.368 133.038C146.764 133.839 146.02 134.502 145.178 134.991C144.337 135.48 143.415 135.783 142.464 135.885C137.529 136.386 130.705 135.489 126.56 128.353L118.116 117.17C116.645 114.738 115.909 111.872 116.009 108.968C116.109 106.063 117.041 103.264 118.675 100.958C124.343 91.9656 138.455 93.6974 141.809 102.502Z"
          fill="#F4A28C"/>
    <path d="M119.745 120L116 172.978L145 173L136.311 135.4L119.745 120Z" fill="#F4A28C"/>
    <path d="M136.32 107.231C131.694 109.318 126.859 110.825 121.912 111.723C124.035 113.404 125.654 115.717 126.569 118.377C127.483 121.036 127.655 123.926 127.061 126.689C126.513 129.36 125.124 131.745 123.13 133.442C121.135 135.138 118.657 136.041 116.115 135.999L109.149 114.888C108.057 111.905 107.735 108.66 108.219 105.496C108.703 102.333 109.973 99.369 111.896 96.9197C113.556 94.7976 115.334 92.7846 117.218 90.8914C122.021 86.2364 131.626 87.0045 135.26 80.9064C135.628 80.2981 136.136 79.8029 136.735 79.4692C137.333 79.1356 138.003 78.975 138.676 79.0032C139.35 79.0313 140.006 79.2473 140.579 79.6299C141.152 80.0124 141.623 80.5486 141.945 81.1857C145.039 87.214 147.418 97.6877 140.604 104.461C139.325 105.628 137.878 106.564 136.32 107.231Z"
          fill="#24285B"/>
    <path d="M133 120.751C133 120.751 130.695 114.146 126.085 116.512C121.475 118.878 125.025 128.442 131.686 126.815L133 120.751Z"
          fill="#F4A28C"/>
    <path d="M145 116L156.104 118.909C156.705 119.074 157.192 119.295 157.523 119.552C157.853 119.81 158.017 120.095 157.999 120.383C157.98 120.671 157.781 120.953 157.418 121.203C157.055 121.454 156.54 121.665 155.919 121.818L146.666 124L145 116Z"
          fill="#F4A28C"/>
    <path opacity="0.31"
          d="M137.73 138.682C134.523 138.318 131.531 137.39 129.079 136C129.079 136 127.357 142.737 140 145L137.73 138.682Z"
          fill="#CE8172"/>
    <path d="M596.006 105.751C596.006 105.751 588.354 118.512 587.048 128.108C586.926 129.037 587.037 129.975 587.377 130.87C587.716 131.764 588.277 132.597 589.027 133.321C589.777 134.045 590.701 134.645 591.746 135.087C592.792 135.528 593.938 135.803 595.118 135.896C601.282 136.348 609.744 135.546 614.915 129.094L625.362 119.005C627.193 116.812 628.111 114.226 627.989 111.604C627.868 108.983 626.712 106.456 624.683 104.374C617.736 96.2371 600.185 97.8605 596.006 105.751Z"
          fill="#F4A28C"/>
    <path d="M618.859 124L623 173H591L600.595 138.253L618.859 124Z" fill="#F4A28C"/>
    <path d="M591 116L583.431 118.883C582.993 119.04 582.632 119.258 582.381 119.515C582.131 119.773 582 120.062 582 120.356C582 120.651 582.131 120.94 582.381 121.198C582.632 121.455 582.993 121.673 583.431 121.83L589.827 124L591 116Z"
          fill="#F4A28C"/>
    <path opacity="0.31"
          d="M602.282 138.686C605.483 138.315 608.469 137.387 610.92 136C610.92 136 612.648 142.729 600 145L602.282 138.686Z"
          fill="#CE8172"/>
    <path d="M285 293H269V367H285V293Z" fill="#FFD200"/>
    <path opacity="0.46" d="M285 293H277V367H285V293Z" fill="white"/>
    <path d="M267.451 363L244 380H306L282.029 363H267.451Z" fill="#FFD200"/>
    <path opacity="0.08" d="M267.451 363L244 380H306L282.05 363H267.451Z" fill="black"/>
    <path d="M114.477 173H142.213C142.213 173 184.397 173 210.417 229.389C229.056 269.773 211.531 380 211.531 380H61.0337C61.0337 380 -17.1137 193.181 114.477 173Z"
          fill="#F6635A"/>
    <path d="M298 223H256V306H298V223Z" fill="#FFD200"/>
    <path d="M484 293H471V367H484V293Z" fill="#FFD200"/>
    <path opacity="0.46" d="M484 293H471V367H484V293Z" fill="white"/>
    <path d="M465.451 363L442 380H504L480.029 363H465.451Z" fill="#FFD200"/>
    <path opacity="0.08" d="M465.451 363L442 380H504L480.029 363H465.451Z" fill="black"/>
    <path d="M500 223H450V306H500V223Z" fill="#FFD200"/>
    <path opacity="0.08"
          d="M105.459 215C105.459 215 135.171 240.118 117.4 278.358C99.6282 316.598 81.5112 349.205 130.961 344.212L192.978 318.807C192.978 318.807 204.854 312.18 205.394 322.673C205.934 333.166 210.792 350.287 180.561 358.571C150.33 366.856 152.489 380 152.489 380L63.4157 379.691L38 316.046L105.459 215Z"
          fill="black"/>
    <path d="M106.739 225.587C102.138 201.819 71.4893 193.954 54.708 211.586C34.1723 233.109 19.9582 259.735 13.5871 288.614C-1.02543 354.883 21.6053 375.798 48.6395 379.752C75.6737 383.706 183 339.045 183 339.045L175.968 319.188C175.968 319.188 94.2734 350.107 67.2611 327.074C45.9668 309.011 114.867 267.331 106.739 225.587Z"
          fill="#F4A28C"/>
    <path opacity="0.2"
          d="M106.739 225.984C102.138 201.816 71.4893 193.819 54.708 211.747C34.1723 233.633 19.9582 260.708 13.5871 290.074C-1.02543 357.459 21.6053 378.727 48.6395 382.748C75.6737 386.769 183 341.354 183 341.354L175.968 321.163C175.968 321.163 94.2734 352.604 67.2611 329.182C45.9668 310.815 114.867 268.432 106.739 225.984Z"
          fill="#F4A28C"/>
    <path d="M178 316.606C178 316.606 186.226 305.266 198.915 306.038C211.603 306.809 207.048 314.689 200.867 316.606C200.867 316.606 215.182 331.36 185.367 338L178 316.606Z"
          fill="#F4A28C"/>
    <path d="M594.43 167.666C594.43 167.666 541.544 201.71 541.011 231.078C540.77 243.907 544.434 256.477 551.46 266.929C557.159 275.424 560.958 285.181 562.571 295.461L563.957 380.379L679.88 383C679.88 383 755.327 215.829 649.769 165L594.43 167.666Z"
          fill="#F6635A"/>
    <path opacity="0.08"
          d="M669.893 206C669.893 206 622.61 212.187 633.202 286.492C638.275 322.055 643.971 340.768 586.587 323.788L562 309.638L563.246 380.455L684.2 383L702 331.642L669.893 206Z"
          fill="black"/>
    <path d="M591 174.933C591 174.933 591.978 196.379 607.038 193.782C622.098 191.184 629.4 187.173 632 173L591 174.933Z"
          fill="white"/>
    <path d="M591 107.129L611.527 115.782C609.989 131.272 612.152 146.905 617.84 161.407C619.313 164.956 621.582 168.123 624.474 170.668C627.366 173.212 630.805 175.067 634.528 176.089C638.251 177.112 642.16 177.276 645.956 176.568C649.753 175.861 653.337 174.301 656.434 172.008C657.938 170.894 659.14 169.428 659.934 167.74C660.728 166.052 661.088 164.194 660.982 162.334C660.876 160.473 660.308 158.668 659.328 157.079C658.349 155.49 656.988 154.168 655.368 153.23C645.115 147.216 634.47 136.464 636.429 118.162C640.065 84.1755 600.142 71.9742 591 107.129Z"
          fill="#24285B"/>
    <path d="M652.134 226.528C651.07 201.147 685.434 192.297 696.094 215.276C701.003 226.015 704.151 237.497 705.414 249.27C711.627 303.17 721.67 362.847 677.604 380.742C633.537 398.637 557 304.295 557 304.295L571.724 289.971C571.724 289.971 629.792 336.449 653.794 332.727C670.348 330.131 654.028 272.682 652.134 226.528Z"
          fill="#F4A28C"/>
    <path d="M320.5 127C356.122 127 385 98.5701 385 63.5C385 28.4299 356.122 0 320.5 0C284.878 0 256 28.4299 256 63.5C256 98.5701 284.878 127 320.5 127Z"
          fill="#24285B"/>
    <path opacity="0.24"
          d="M324.282 127C324.282 127 309.769 54.1714 378.393 33C381.262 37.7021 383.483 42.7272 385 47.9545L343.625 123.176C337.416 125.345 330.897 126.633 324.282 127Z"
          fill="black"/>
    <path d="M407.5 173C442.57 173 471 143.451 471 107C471 70.5492 442.57 41 407.5 41C372.43 41 344 70.5492 344 107C344 143.451 372.43 173 407.5 173Z"
          fill="#24285B"/>
    <path d="M607 119.459C607 119.459 610.656 114.641 617.09 116.377C623.524 118.113 618.625 125.038 608.901 123.868L607 119.459Z"
          fill="#F4A28C"/>
    <path d="M566 289.162C563.303 281.451 558.764 274.81 552.924 270.029C535.419 256.279 543.1 274.598 547.405 279.105C547.405 279.105 530.31 286.7 551.978 306L566 289.162Z"
          fill="#F4A28C"/>
    <path d="M572.692 286.621L551.082 309.884L560.468 318.602L582.077 295.339L572.692 286.621Z" fill="#24285B"/>
    <path d="M351 365.23C351 365.23 378.685 354.532 375.787 380H351V365.23Z" fill="#F4A28C"/>
    <path d="M263.654 95L219 124L281 113.976L263.654 95Z" fill="#24285B"/>
    <path d="M459.362 124L504 157L442 145.616L459.362 124Z" fill="#24285B"/>
    <path d="M374.5 120C380.299 120 385 115.299 385 109.5C385 103.701 380.299 99 374.5 99C368.701 99 364 103.701 364 109.5C364 115.299 368.701 120 374.5 120Z"
          fill="#FFD200"/>
    <path d="M411 120C416.523 120 421 115.299 421 109.5C421 103.701 416.523 99 411 99C405.477 99 401 103.701 401 109.5C401 115.299 405.477 120 411 120Z"
          fill="#FFD200"/>
    <path d="M438 120C442.418 120 446 115.299 446 109.5C446 103.701 442.418 99 438 99C433.582 99 430 103.701 430 109.5C430 115.299 433.582 120 438 120Z"
          fill="#FFD200"/>
    <path d="M289.5 79C294.194 79 298 74.0751 298 68C298 61.9249 294.194 57 289.5 57C284.806 57 281 61.9249 281 68C281 74.0751 284.806 79 289.5 79Z"
          fill="#73DCF4"/>
    <path d="M316 79C321.523 79 326 74.0751 326 68C326 61.9249 321.523 57 316 57C310.477 57 306 61.9249 306 68C306 74.0751 310.477 79 316 79Z"
          fill="#73DCF4"/>
    <path d="M352 79C356.418 79 360 74.0751 360 68C360 61.9249 356.418 57 352 57C347.582 57 344 61.9249 344 68C344 74.0751 347.582 79 352 79Z"
          fill="#73DCF4"/>
    <path opacity="0.08" d="M298 223H256V281H298V223Z" fill="black"/>
    <path opacity="0.08" d="M500 223H450V281H500V223Z" fill="black"/>
    <path opacity="0.08" d="M285 365.183L351 363V380H308.504L285 365.183Z" fill="black"/>
    <path d="M111.504 120C111.504 120 99.7693 103.125 119.249 95C116.425 98.7099 114.993 103 115.127 107.353C115.26 111.705 116.953 115.934 120 119.527L111.504 120Z"
          fill="#68E1FD"/>
    <path opacity="0.08"
          d="M111.504 120C111.504 120 99.7693 103.125 119.249 95C116.425 98.7099 114.993 103 115.127 107.353C115.26 111.705 116.953 115.934 120 119.527L111.504 120Z"
          fill="#F4A28C"/>
    <path d="M120.5 136C127.404 136 133 131.523 133 126C133 120.477 127.404 116 120.5 116C113.596 116 108 120.477 108 126C108 131.523 113.596 136 120.5 136Z"
          fill="#F6635A"/>
    <path d="M625.659 116C625.659 116 633.498 95.75 620.486 86C622.363 90.4387 623.316 95.5692 623.23 100.774C623.144 105.98 622.022 111.038 620 115.341L625.659 116Z"
          fill="#68E1FD"/>
    <path opacity="0.08"
          d="M625.659 116C625.659 116 633.498 95.75 620.486 86C622.363 90.4387 623.316 95.5692 623.23 100.774C623.144 105.98 622.022 111.038 620 115.341L625.659 116Z"
          fill="black"/>
    <path d="M615.5 136C622.404 136 628 130.404 628 123.5C628 116.596 622.404 111 615.5 111C608.596 111 603 116.596 603 123.5C603 130.404 608.596 136 615.5 136Z"
          fill="#F6635A"/>
    <path d="M566 306C568.209 306 570 303.985 570 301.5C570 299.015 568.209 297 566 297C563.791 297 562 299.015 562 301.5C562 303.985 563.791 306 566 306Z"
          fill="#FFE002"/>
    <path d="M727 380H0V405H727V380Z" fill="#E6E6E6"/>
    <path opacity="0.4" d="M727 405H0V462H727V405Z" fill="#A5A5A5"/>
</svg>
