<svg xmlns="http://www.w3.org/2000/svg" xmlns:xlink="http://www.w3.org/1999/xlink" width="100%" height="100%"
     viewBox="0 0 16 144">
    <defs>
        <path id="a" d="M0 0h698v144H0z"/>
    </defs>
    <g fill="none" fill-rule="evenodd" transform="translate(-341)">
        <mask id="b" fill="#fff">
            <use xlink:href="#a"/>
        </mask>
        <path stroke="#DADADA" stroke-width="3"
              d="M69 108.632l12.686-11.145a10 10 0 0 1 13.933.714l6.048 6.523c3.755 4.05 10.082 4.289 14.132.533a10 10 0 0 0 .534-.533l5.334-5.753c3.755-4.05 10.082-4.289 14.132-.534a10 10 0 0 1 .534.534l5.334 5.753c3.755 4.05 10.082 4.289 14.132.533a10 10 0 0 0 .534-.533l5.334-5.754c3.755-4.05 10.083-4.288 14.132-.533a10 10 0 0 1 .534.533l5.336 5.754c3.755 4.05 10.082 4.289 14.132.533a10 10 0 0 0 .533-.533l5.335-5.753c3.755-4.05 10.082-4.289 14.132-.534a10 10 0 0 1 .533.534l5.335 5.753c3.755 4.05 10.082 4.289 14.132.533a10 10 0 0 0 .533-.533l5.335-5.753c3.755-4.05 10.082-4.289 14.132-.534a10 10 0 0 1 .533.534l5.335 5.753c3.755 4.05 10.082 4.289 14.132.533a10 10 0 0 0 .533-.533l5.335-5.753c3.755-4.05 10.082-4.289 14.132-.534a10 10 0 0 1 .533.534l5.335 5.753c3.755 4.05 10.082 4.289 14.132.533a10 10 0 0 0 .533-.533l5.335-5.753c3.755-4.05 10.082-4.289 14.132-.534a10 10 0 0 1 .533.534l5.335 5.753c3.755 4.05 10.082 4.289 14.132.533a10 10 0 0 0 .533-.533l5.335-5.753c3.755-4.05 10.082-4.289 14.132-.534a10 10 0 0 1 .533.534l5.335 5.753c3.755 4.05 10.082 4.289 14.132.533a10 10 0 0 0 .533-.533l5.335-5.753c3.755-4.05 10.082-4.289 14.132-.534a10 10 0 0 1 .533.534l5.335 5.753c3.755 4.05 10.082 4.289 14.132.533a10 10 0 0 0 .533-.533l5.335-5.753c3.755-4.05 10.082-4.289 14.132-.534a10 10 0 0 1 .533.534l5.335 5.753c3.755 4.05 10.082 4.289 14.132.533a10 10 0 0 0 .533-.533l6.045-6.52a10 10 0 0 1 13.937-.71l6.081 5.349a10 10 0 0 0 13.208 0l6.08-5.348a10 10 0 0 1 13.938.71l6.044 6.519c3.755 4.05 10.082 4.289 14.132.533a10 10 0 0 0 .534-.533l5.334-5.753c3.755-4.05 10.082-4.289 14.132-.534a10 10 0 0 1 .534.534l5.334 5.753c3.755 4.05 10.082 4.289 14.132.533a10 10 0 0 0 .534-.533l6.048-6.523a10 10 0 0 1 13.933-.714L629 108.632"
              mask="url(#b)" transform="rotate(90 349 101.816)"/>
    </g>
</svg>
